<?xml version="1.0" encoding="utf-8"?>
<!-- Generator: Adobe Illustrator 18.1.0, SVG Export Plug-In . SVG Version: 6.00 Build 0)  -->
<svg version="1.1" id="Layer_1" xmlns="http://www.w3.org/2000/svg" xmlns:xlink="http://www.w3.org/1999/xlink" x="0px" y="0px"
	 viewBox="0 0 150 150" enable-background="new 0 0 150 150" xml:space="preserve">
<g>
	<g>
		<g>
			<g>
				<g>
					<g>
						<g>
							<circle fill-rule="evenodd" clip-rule="evenodd" fill="#118944" cx="63.7" cy="120.5" r="8.8"/>
						</g>
					</g>
				</g>
			</g>
		</g>
	</g>
	<g>
		<g>
			<g>
				<g>
					<g>
						<g>
							<circle fill-rule="evenodd" clip-rule="evenodd" fill="#118944" cx="99.4" cy="119.8" r="8.8"/>
						</g>
					</g>
				</g>
			</g>
		</g>
	</g>
	<g>
		<g>
			<g>
				<g>
					<g>
						<g>
							<g>
								<path fill="#118944" d="M120.4,61c0.3,0,0.6,0,0.9,0c0.8,0.1,1.5,0.1,2.3,0.1c0.4,0,0.8-0.1,1.3-0.1c2.9-0.2,5.6-1,8.1-2.3
									c2.7-1.1,5-2.6,6.6-4.6c0.3-0.3,0.5-0.7,0.7-1c2.4-7.6,1.3-16.1-4.6-23.2c-1.2-1.5-2.6-2.9-4.1-4.2c0,0.1,0.1,0.2,0.1,0.3
									c0.2,0.3,0.3,0.7,0.4,1.1c0.3,1.2,0.2,2.5-0.1,3.8c-0.3,1.5-0.8,2.9-1.8,4.2c-0.2,0.3-0.5,0.6-0.7,0.8
									c-1.3,2-2.9,3.8-4.3,5.4c-6.3,6.8-16,10.8-17.8,19.1C111.3,60.9,115.9,61.2,120.4,61z"/>
							</g>
						</g>
					</g>
				</g>
			</g>
		</g>
		<g>
			<g>
				<g>
					<g>
						<g>
							<g>
								<path fill="#118944" d="M140.9,56.2c-0.4,0.7-0.8,1.3-1.3,2c-0.9,1.2-2,2.1-3.3,2.9c-1,0.7-2.2,1.2-3.4,1.7
									c-3,1.5-6.2,2.3-9.6,2.3c-0.8,0-1.6,0-2.4-0.1c-0.7,0-1.4,0-2.1,0c-1.6,0-3.2,0-4.7,0c-2.4-0.1-4.7-0.3-6.9-0.5
									c-0.4,0-0.9-0.1-1.3-0.1C83.1,61.9,61,47.3,42.8,62.3c-1,0.8-1.9,1.7-2.8,2.6c-0.2-0.1-0.4-0.3-0.7-0.4
									c1-1.3,1.9-2.4,2.9-3.4L29.1,33.4c-1.5-2.2-3.7-3.9-6-5.2c-2.3-1.2-4.9-2.1-7.6-2.1H9.7c-2.2,0-4,1.8-4,4s1.8,4,4,4h5.7
									c0.9,0,2.5,0.4,3.9,1.2c1.4,0.7,2.6,1.8,3.1,2.6L37,68.3c0,0.1-0.1,0.1-0.1,0.2c2,1.2,4.1,2.4,6.1,3.5
									c2.3,1.3,4.6,2.5,6.9,3.6c0.6,0.3,1.3,0.6,1.9,0.9c7.2,4.4,14.6,7.5,22,9.4c7.5,1.8,14.9,2.3,21.9,1.1
									c2.6-0.4,5.2-1,7.6-1.8c3.8-0.5,7.5-1.1,11.2-2c-6,4.1-12.7,6.8-19.9,7.8c-7.2,1.1-14.8,0.7-22.5-1.1
									c-7.7-1.9-15.4-5.1-22.9-9.6c-1.5-0.9-3-1.9-4.4-2.9c-2-1.4-4-2.8-5.9-4.3c4.8,7.3,3.7,13.6,6.2,19c0,0,0,0,0,0l5,9.7
									c1.6,2.3,3.9,3.9,6.4,5.2c2.5,1.2,5.3,2.1,8.2,2.1h15.5c3.8,0.4,7.5,0.3,11.2,0h2.9c0-0.1,0-0.2,0-0.3
									c21-3,39.5-17.2,45.1-40.7c1-4.1,1.6-8.3,2-12.5c-0.2,0.2-0.3,0.4-0.5,0.6C140.9,56.1,140.9,56.1,140.9,56.2z"/>
							</g>
						</g>
					</g>
				</g>
			</g>
		</g>
	</g>
</g>
</svg>
